# xmcd
#
# Track frame offsets: 
#        150
#        19836
#        34446
#        50950
#        63964
#        88163
#        108525
#        134634
#        154829
#        170826
#        188606
#        212583
#        234596
#
# Disc length: 3380 seconds
#
# Revision: 0
# Processed by: cddbd v1.5.2PL0 Copyright (c) Steve Scherf et al.
# Submitted via: ExactAudioCopy v0.99pb5
#
DISCID=c10d320d
DTITLE=Earl Thomas - Introducing The Blues Ambassadors
DYEAR=2010
DGENRE=Blues
TTITLE0=I'll Be Alright
TTITLE1=Broken Hearted
TTITLE2=All Your Love
TTITLE3=She Fooled Me
TTITLE4=Ask Me The Time
TTITLE5=Don't Do Me This Way Again
TTITLE6=Jet Airliner
TTITLE7=All Talk No Action
TTITLE8=Never Can Tell
TTITLE9=One Monkey Don't Stop No Show
TTITLE10=Love Is A Wonderful Thing
TTITLE11=Standing In The Rain
TTITLE12=How Come?
EXTD=
EXTT0=
EXTT1=
EXTT2=
EXTT3=
EXTT4=
EXTT5=
EXTT6=
EXTT7=
EXTT8=
EXTT9=
EXTT10=
EXTT11=
EXTT12=
PLAYORDER=
